<svg width="44" height="45" viewBox="0 0 44 45" fill="none" xmlns="http://www.w3.org/2000/svg">
<rect width="44" height="44" transform="translate(0 0.5)" fill="#E85D56"/>
<path fill-rule="evenodd" clip-rule="evenodd" d="M22.0001 24.622L27.3031 29.925C27.5845 30.2064 27.9661 30.3645 28.3641 30.3645C28.762 30.3645 29.1437 30.2064 29.4251 29.925C29.7065 29.6436 29.8646 29.2619 29.8646 28.864C29.8646 28.466 29.7065 28.0844 29.4251 27.803L24.1201 22.5L29.4241 17.197C29.5634 17.0577 29.6738 16.8923 29.7492 16.7102C29.8245 16.5282 29.8633 16.3331 29.8632 16.1361C29.8632 15.9391 29.8243 15.7441 29.7489 15.5621C29.6735 15.3801 29.5629 15.2148 29.4236 15.0755C29.2843 14.9362 29.1189 14.8258 28.9368 14.7504C28.7548 14.6751 28.5597 14.6363 28.3627 14.6364C28.1657 14.6364 27.9707 14.6753 27.7887 14.7507C27.6067 14.8261 27.4414 14.9367 27.3021 15.076L22.0001 20.379L16.6971 15.076C16.5588 14.9327 16.3933 14.8183 16.2104 14.7396C16.0274 14.6609 15.8306 14.6194 15.6314 14.6176C15.4322 14.6158 15.2347 14.6537 15.0503 14.729C14.866 14.8043 14.6984 14.9156 14.5575 15.0564C14.4166 15.1972 14.3052 15.3646 14.2296 15.5489C14.1541 15.7332 14.1161 15.9307 14.1177 16.1299C14.1194 16.329 14.1606 16.5259 14.2392 16.7089C14.3177 16.892 14.4319 17.0575 14.5751 17.196L19.8801 22.5L14.5761 27.804C14.4329 27.9424 14.3187 28.108 14.2402 28.291C14.1616 28.4741 14.1204 28.6709 14.1187 28.8701C14.1171 29.0693 14.1551 29.2668 14.2306 29.4511C14.3062 29.6354 14.4176 29.8028 14.5585 29.9436C14.6994 30.0844 14.867 30.1957 15.0513 30.271C15.2357 30.3463 15.4332 30.3842 15.6324 30.3824C15.8316 30.3805 16.0284 30.3391 16.2114 30.2604C16.3943 30.1817 16.5598 30.0673 16.6981 29.924L22.0001 24.622Z" fill="#F4E8DC"/>
</svg>
