<svg width="44" height="44" viewBox="0 0 44 44" fill="none" xmlns="http://www.w3.org/2000/svg">
<rect x="1.5" y="1.5" width="41" height="41" stroke="#E85D56" stroke-width="3"/>
<path d="M19 13C19.2652 13 19.5196 13.1054 19.7071 13.2929C19.8946 13.4804 20 13.7348 20 14V30C20 30.2652 19.8946 30.5196 19.7071 30.7071C19.5196 30.8946 19.2652 31 19 31H17C16.7348 31 16.4804 30.8946 16.2929 30.7071C16.1054 30.5196 16 30.2652 16 30V14C16 13.7348 16.1054 13.4804 16.2929 13.2929C16.4804 13.1054 16.7348 13 17 13H19ZM27 13C27.2652 13 27.5196 13.1054 27.7071 13.2929C27.8946 13.4804 28 13.7348 28 14V30C28 30.2652 27.8946 30.5196 27.7071 30.7071C27.5196 30.8946 27.2652 31 27 31H25C24.7348 31 24.4804 30.8946 24.2929 30.7071C24.1054 30.5196 24 30.2652 24 30V14C24 13.7348 24.1054 13.4804 24.2929 13.2929C24.4804 13.1054 24.7348 13 25 13H27Z" fill="#F4E8DC"/>
</svg>
