<svg width="25" height="24" viewBox="0 0 25 24" fill="none" xmlns="http://www.w3.org/2000/svg">
<path d="M21.5 7V19C21.5 19.55 21.3043 20.021 20.913 20.413C20.5217 20.805 20.0507 21.0007 19.5 21H5.5C4.95 21 4.47933 20.8043 4.088 20.413C3.69667 20.0217 3.50067 19.5507 3.5 19V5C3.5 4.45 3.696 3.97933 4.088 3.588C4.48 3.19667 4.95067 3.00067 5.5 3H17.5L21.5 7ZM12.5 18C13.3333 18 14.0417 17.7083 14.625 17.125C15.2083 16.5417 15.5 15.8333 15.5 15C15.5 14.1667 15.2083 13.4583 14.625 12.875C14.0417 12.2917 13.3333 12 12.5 12C11.6667 12 10.9583 12.2917 10.375 12.875C9.79167 13.4583 9.5 14.1667 9.5 15C9.5 15.8333 9.79167 16.5417 10.375 17.125C10.9583 17.7083 11.6667 18 12.5 18ZM6.5 10H15.5V6H6.5V10Z" fill="#484848"/>
</svg>
